PERFORMER "Gabriel & Dresden"
TITLE "Essential Mix (2003-03-09)"
FILE "Gabriel & Dresden - Essential Mix (03-09-2003).mp3" MP3
  TRACK 01 AUDIO
    TITLE "Personality (James Zabiela Remix)"
    PERFORMER "Virgin Souls"
    INDEX 01 00:00:00
  TRACK 02 AUDIO
    TITLE "Use Only The Drugs (Original Mix)"
    PERFORMER "Attention Deficit"
    INDEX 01 10:42:00
  TRACK 03 AUDIO
    TITLE "Eggs Are Cute (Re-Percussion Mix)"
    PERFORMER "James Talk"
    INDEX 01 17:04:08
  TRACK 04 AUDIO
    TITLE "I Gotta Thank...(Instrumental)"
    PERFORMER "Gabriel and Dresden"
    INDEX 01 23:34:25
  TRACK 05 AUDIO
    TITLE "On A High (Gabriel and Dresden Love From Humboldt Dub)"
    PERFORMER "Duncan Sheik"
    INDEX 01 30:46:13
  TRACK 06 AUDIO
    TITLE "Bass Trap"
    PERFORMER "The Dirty Fours & Luke Chable"
    INDEX 01 37:26:67
  TRACK 07 AUDIO
    TITLE "Bubble Bath"
    PERFORMER "Agent 001"
    INDEX 01 44:23:41
  TRACK 08 AUDIO
    TITLE "Hale Bopp"
    PERFORMER "Der Dritte Raum"
    INDEX 01 50:07:51
  TRACK 09 AUDIO
    TITLE "Make Me (Bassin Twins Dub Mix)"
    PERFORMER "Andain"
    INDEX 01 57:02:50
  TRACK 10 AUDIO
    TITLE "Beautiful Things (Gabriel and Dresden Unplugged Mix)"
    PERFORMER "Andain"
    INDEX 01 60:53:39
  TRACK 11 AUDIO
    TITLE "Let The Good Times Roll (Josh Gabriel Unauthorized Dub)"
    PERFORMER "Layo and Bushwacka!"
    INDEX 01 70:32:34
  TRACK 12 AUDIO 
    TITLE "Acid Elliot" 
    PERFORMER "Gabriel and Dresden" 
    INDEX 01 76:15:27 
  TRACK 13 AUDIO 
    TITLE "Lament (Dub 4 Satoshi)" 
    PERFORMER "Gabriel and Dresden" 
    INDEX 01 80:37:39 
  TRACK 14 AUDIO 
    TITLE "As The Rush Comes" 
    PERFORMER "Motorcycle"
    INDEX 01 87:28:29 
  TRACK 15 AUDIO 
    TITLE "Alive (Club Mix)" 
    PERFORMER "Josh Gabriel"
    INDEX 01 97:50:27 
  TRACK 16 AUDIO 
    TITLE "Breathless" 
    PERFORMER "The Dirty Fours"
    INDEX 01 106:06:59 
  TRACK 17 AUDIO 
    TITLE "Beachball (Gabriel and Dresden's South Beach Vacation)" 
    PERFORMER "Nalin and Kane"
    INDEX 01 112:16:55
